<svg xmlns="http://www.w3.org/2000/svg" viewBox="0 0 128 128">
  <path fill="#fff" d="M88.69 88.11c-9 18.4-24.76 30.78-45.61 34.85a39.73 39.73 0 0 1-9.77 1.14c-12 0-23-5-28.34-13.19C-2.2 100-4.64 76.87 19 59.76c.48 2.61 1.46 6.19 2.11 8.31A38.24 38.24 0 0 0 10 81.1c-4.4 8.64-3.91 17.27 1.3 25.25 3.6 5.38 9.3 8.65 16.63 9.65a44 44 0 0 0 26.55-5c12.78-6.92 21.16-18.9 24.51-31.24a25.14 25.14 0 0 0 .74-9.54 14.18 14.18 0 0 0-2.37-.72c-2.5-.56-5-.95-7.61-1.33-6.91-1-13.69-2.48-18.99-7.18C46.56 57.15 45.85 51 47 44.29c.9-4.8 3.3-8.72 7.39-11.39a14.5 14.5 0 0 1 11-2.33A13.06 13.06 0 0 1 75.5 39a13.93 13.93 0 0 1 .67 11.19c-.5 1.29-1.06 2.56-1.74 3.76-2 3.36-4.14 6.61-4.84 10.66-.35 2-.26 4.06.66 5.89a4.59 4.59 0 0 0 2.81 2.39 19.14 19.14 0 0 0 5.37.82c3.83.2 7.69.1 11.52.26a24.49 24.49 0 0 1 10.43 2.64c5.33 2.89 8 7.43 8.71 13.36.78 6.56-1.53 12.07-5.4 17.14z"/>
  <path fill="#fff" d="M88.69 88.11a57 57 0 0 0 6.42-19.91 45.25 45.25 0 0 0-1.65-21.76 27.23 27.23 0 0 0-8.67-12.58 25.87 25.87 0 0 0-8.25-4.79 66.27 66.27 0 0 0-10.21-3.22 82.1 82.1 0 0 0-14.44-2.24 114 114 0 0 0-15.42-.45c-3.31.1-6.58.52-9.65 1.94A14.11 14.11 0 0 0 19.92 33a21.64 21.64 0 0 0-2 10.88 64.7 64.7 0 0 0 1.81 12.31c1.14 4.67 2.59 9.22 4.7 13.52a34.12 34.12 0 0 0 9.88 12.83 21.08 21.08 0 0 0 13.23 4.63c2.46 0 5-.13 7.41-.52 1.48-.23 2.94-.57 4.44-.72a8.14 8.14 0 0 1 6.37 2.18 9.77 9.77 0 0 1 3.18 5.8c.14.77.2 1.55.29 2.33z"/>
</svg>