<?xml version="1.0" encoding="UTF-8"?>
<svg id="Layer_2" data-name="Layer 2" xmlns="http://www.w3.org/2000/svg" viewBox="0 0 322.42 285.09">
  <defs>
    <style>
      .cls-1 {
        fill: #1a1a1a;
      }

      .cls-1, .cls-2, .cls-3 {
        stroke-width: 0px;
      }

      .cls-2 {
        fill: none;
      }

      .cls-3 {
        fill: #fff;
      }
    </style>
  </defs>
  <g id="Layer_1-2" data-name="Layer 1">
    <path class="cls-1" d="M230.86,0H91.56c-7.82,0-15.06,4.17-18.97,10.95L2.93,131.6c-3.91,6.78-3.91,15.13,0,21.9l69.65,120.64c3.91,6.78,11.14,10.95,18.97,10.95h139.31c7.82,0,15.06-4.17,18.97-10.95l69.65-120.64c3.91-6.78,3.91-15.13,0-21.9L249.83,10.95c-3.91-6.78-11.14-10.95-18.97-10.95Z"/>
    <polygon class="cls-2" points="216.29 43.2 114.02 44.82 225.28 230.67 275.01 141.28 216.29 43.2"/>
    <polygon class="cls-2" points="46.41 144.9 105.13 242.99 204.9 241.41 94.93 57.71 46.41 144.9"/>
    <path class="cls-3" d="M228.2,33.04l-7.53,11.9c-1.05,1.66-1.08,3.78-.07,5.46l54.4,90.88-49.74,89.38L114.02,44.82l-11.44-19.11c-1.36-2.27-3.83-3.65-6.48-3.61l-3.91.06c-2.37.04-4.54,1.34-5.69,3.41l-5.2,9.35-58.98,105.99c-1.52,2.73-1.46,6.06.14,8.73l64.07,107.02c2.09,3.5,7.14,3.56,9.32.11l7.22-11.42c1.1-1.75,1.13-3.96.07-5.73l-56.71-94.73,48.52-87.19,109.97,183.7,10.77,17.98c1.78,2.97,5.01,4.77,8.47,4.71l3.56-.06c3.32-.05,6.37-1.87,7.98-4.78l3.23-5.81,60.04-107.91c1.61-2.9,1.56-6.44-.15-9.29l-61.73-103.12c-2-3.33-6.81-3.39-8.88-.11Z"/>
    <polygon class="cls-3" points="95.59 72.82 56.6 142.89 136.78 141.62 95.59 72.82"/>
    <polygon class="cls-3" points="224.86 215.38 263.85 145.31 183.68 146.58 224.86 215.38"/>
  </g>
</svg>